<?xml version="1.0" encoding="UTF-8"?><svg id="a" xmlns="http://www.w3.org/2000/svg" xmlns:xlink="http://www.w3.org/1999/xlink" viewBox="0 0 391 113"><defs><style>.c{fill:url(#b);}.d{fill:none;}.e{fill:#f62930;}.f{fill:#fff;}.g{fill:#822927;}.h,.i{fill:#b6382f;}.i{opacity:.4;}</style><pattern id="b" x="0" y="0" width="8" height="298" patternTransform="translate(-11235.4 1730.2) rotate(65)" patternUnits="userSpaceOnUse" viewBox="0 0 8 298"><g><rect class="d" y="0" width="8" height="298"/><rect class="h" x="4" y="0" width="4" height="298"/><rect class="g" x="0" y="0" width="4" height="298"/></g></pattern></defs><path class="i" d="M45.1,7.2l346.5,.7-37.8,105.9-346.5-.7L45.1,7.2Z"/><path class="c" d="M38,0H384.5l-37.5,106H.5L38,0Z"/><g><path d="M97.3,93l-7.4-4.5h-.1l-12.9-7.9,1.5-5.4c1.2-4.5,1.5-8.6,.1-22.1l-2.8-27,63.4-6.5,.5,7.7c.2,3.2,.4,6.1,.4,8.3h.4l1.5,14.8v.6c0,.9-.1,1.8-.2,2.7l.9,1.8c1,2.1,1.1,4.6,.2,6.8,0,.2-.2,.4-.3,.5l4.1,1.3-5.2,22.2-7.6-2.3c-1.9-.6-3.8-1.3-5.7-2.2-.6,.6-1.3,1.2-2,1.7l.2,1.6-2.6,.3-4.8,3.7-1.9-3-11.1,1.1c-.4,0-.9,.1-1.4,.2-1.1,.1-2.9,.2-5.8,.4l-1.5,5Z"/><path d="M137.2,85.6l-5.7-21.2,3.9-1.1-.7-6.9-2.8-9.5-6,.6,4.7-4.9-2.8-9.4,3.8-3.2c3.4-2.8,6.4-5.9,8.8-9.2l2-2.7,15.3-1.6h.1l.4-1.9,22.5,1.2-.3,2.2,14.8-1.5,2.3,22.3h-.8l1.8,17.4c.6,5.6,.6,9.4-.9,12.5l-.2,.3c-1.6,2.9-4.1,4.3-6.6,5.1l.5,5.2-22.9,2.4-.3-2.7-11.2,5.1-1.8-3.9c-3.6,1.3-7.2,2.4-10.7,3.3l-7.3,2Z"/><path d="M218.2,78.7l-6.5-3c-3.7-1.7-7.5-3.2-11.7-4.7l-6.5-2.3-3.8,.4-1.1-10.2-9.8-3.7,9.4-1-.6-6.1h.8l-1.3-7,3.2-.3-.4-3.4-3.6,.4-2.2-21.2,20.5-2.1-.3-3.3,23.9-2.5,.3,3.3,20.5-2.1,2.2,21.2-3.6,.4,.4,3.5c1.8,2.2,3.2,3.9,4.3,5.4l4.7,6-4.1,3.1,1.3,13-7.3,.8c-.2,2.6-.9,5.2-2.9,7.3l-.2,.2c-3,2.9-7.2,3.6-12.5,4.1-1.5,.2-4.4,.4-9.3,.7h-2.1l-1.5,3.1Z"/><polygon points="246.7 73.2 240.1 9 302.5 2.6 304.7 24.2 299.8 24.7 300 26.5 304 26.1 305.7 43.1 307.2 43 309.4 64.6 269.7 68.7 269.9 70.8 246.7 73.2"/></g><g><path d="M282.9,86.6c7.9-.5,15.9-1.1,23.8-1.4,5.6-.3,8.5-2.8,8.9-7.8,0-1,.3-2.1,.3-3.1,.1-2.3,.7-4.6,.2-6.8-.8-3.5-2.2-6.8-3.6-10.2-1-2.4-5.1-4.4-7.9-4-3.1,.4-8.9,1.1-12.1,1.4-.6,0,.5,0,0,0l-9.8,31.9-120.1,4.8-56.4,3.4c-1.7,0-2.4-.1-3.7,0-5.5,.5-11,.9-16.5,1.5-1,.1-1.8,.9-2.7,1.5-.2,.1-.3,.4-.5,.6-1.4,2-3.3,3.3-6.1,2.9-2.6-.4-4.9-2.6-5.4-5.2-.5-2.7-.8-5.5-.9-8.3-.1-3.2,2-5.6,5.2-6.1,2.2-.4,3.9,.5,5.2,1.9,1.4,1.5,3,1.7,5,1.5,3.5-.5,7.1-.9,10.9-1.3-.2-1.2,35.1-3.2,36.2-3.3,36.5-5.3,36.6-9.8,59.9-12.4,11.5-1.3,34.8-3.8,43.2-5.2s35.9-5,36.5-5.3l19.9-2.6m12.1,5.8c-.9,2.7-2.1,5.4-2.7,8.1-.6,2.6-3.1,5.1-6.1,5.5-4.5,.5-9,.9-13.5,1.3-7.7,.7-15.3,1.3-23,1.9-10.8,.9-21.6,1.9-32.4,2.9-9.9,.9-19.9,1.6-29.8,2.6-9.7,.9-19.5,1.9-29.3,1.5-9.2-.4-18.3,0-27.5,.9-18.9,1.8-37.9,3.3-56.8,5-2.2,.2-4.4,1.4-6.4,2.5-1.2,.6-1.3,1.9-.4,2.9,.9,1,2.1,.6,3.1,0,.8-.6,1.5-1.3,2-2,.6-1,1.4-1.4,2.7-1.5,2.8-.1,5.6-.4,8.5-.7,8.8-.8,17.6-1.5,26.4-2.3,11.2-1,22.3-1.9,33.5-2.9,5.1-.4,10.2-1,15.3-1,6.6,0,13.2,.6,19.8,.1,14.7-1.1,29.5-1.8,44.3-2.7,14.6-.9,29.1-1.8,43.7-2.7,10-.6,20.1-1.1,30.1-1.8,.6,0,1.5-.7,1.6-1.2,1.3-5.6,.7-11.1-3-16.4Z"/><path class="f" d="M304.8,60.5c3.7,5.4,4.3,10.8,3,16.4-.1,.5-1,1.1-1.6,1.2-10,.6-20.1,1.2-30.1,1.8-14.6,.9-29.1,1.8-43.7,2.7-14.8,.9-29.5,1.6-44.3,2.7-6.6,.5-13.2,0-19.8-.1-5.1,0-10.2,.6-15.3,1-11.2,.9-22.3,1.9-33.5,2.9-8.8,.8-17.6,1.5-26.4,2.3-2.8,.2-5.6,.5-8.5,.7-1.3,0-2.1,.4-2.7,1.5-.5,.8-1.2,1.5-2,2-.9,.7-2.1,1.1-3.1,0-.9-1-.8-2.3,.4-2.9,2-1,4.2-2.2,6.4-2.5,18.9-1.8,37.9-3.2,56.8-5,9.2-.9,18.3-1.3,27.5-.9,9.8,.4,19.6-.6,29.3-1.5,9.9-.9,19.9-1.7,29.8-2.6,10.8-.9,21.6-1.9,32.4-2.9,7.7-.7,15.3-1.3,23-1.9,4.5-.4,9-.8,13.5-1.3,3-.3,5.5-2.9,6.1-5.5,.7-2.8,1.8-5.4,2.7-8.1Z"/><path class="e" d="M141.4,84.9l26.6-5.5,132.9-12.6s3.1,4.7-5.3,7.5c-8.3,2.9-125.6,10.6-125.6,10.6h-28.6Z"/></g><g><path class="f" d="M96.1,79.6l-1.2-7.3c4.4,0,5.1,.7,4.8-2.5l-.7-6.8-4.3,.4c.2,6.6-.3,12.3-1.8,17.1l-7.3-4.4c1.6-6,1.7-11.2,.3-24.8l-2-19.5,18.9-1.9,4,38.9c.3,3.2,.4,5.4,.4,6.8-.2,2.7-.8,3.2-3.4,3.5-1.1,.1-3.7,.3-7.7,.5Zm.9-36l-.6-5.9-4,.4,.6,5.9,4-.4Zm-3.4,6.9l.4,3.9v1.2c.1,.6,.2,1,.2,1.3l4.1-.4-.7-6.3-4,.4Zm38.6-23.7c.3,4.9,.4,8.3,.3,10.2-.2,3.9-.8,4.7-3.6,5-1.4,.1-5,.4-10.9,.8l-.8-5.7c3.5-.2,5.8-.3,6.9-.4,.4,0,.6-.2,.7-.4,0-.2,0-.9,0-2.1l-10.9,1.1,1,9.4,19-2,.7,6.8c-.3,5.4-1.4,10.3-3.5,14.8,2.2,1.8,4.5,3,6.8,3.8l-1.8,7.8c-3.2-.9-6.2-2.5-9.1-4.6-1.7,2.2-3.6,4.1-5.9,5.9l-3.4-5.5,.6,5.9-8.3,.9-5-48.7,27.3-2.8Zm-5.4,23.6l-11.3,1.2,.4,3.9,5.7-4.1c.9,2.4,2.1,4.7,3.7,6.9,.8-2.2,1.3-4.8,1.5-7.9Zm-10.6,7.6l1.2,11.5c1.5-1.2,2.8-2.5,3.9-3.8-2.1-2.5-3.7-5.1-5.1-7.8Z"/><path class="f" d="M142.5,75.4l-1.8-6.7,2.8-.8-2.7-26.3c-.7,.6-1.4,1.1-1.9,1.6l-2.5-8.3c3.9-3.2,7.3-6.8,10.1-10.5l8.9-.9c2.5,2,4.8,3.8,7.1,5.1,.8-2.2,1.4-4.6,1.9-7l7.7,.4c-.2,1.5-.5,2.6-.7,3.6l17.1-1.8,.8,7.3-9.6,1,.5,5,8.9-.9,2,19.7c.4,3.4,.6,6.9-.2,8.5-.8,1.5-3.3,1.8-5.8,2.1-.9,0-1.7,.2-2.4,.2l.5,4.9-8,.8-2.8-27.1-2.3,.2,2.3,22.3-6.3,.6,.4,.9c.2,.4,.3,.7,.4,1l-6.3,2.9-.9-2c-.4-.9-.6-1.4-.7-1.5-5.7,2.3-11.2,4.1-16.5,5.6Zm6.5-38.8l-.3-3.3c-.8,1.1-1.9,2.3-3.2,3.6l3.5-.4Zm5.7,7.4l-.2-2.4-5.8,.6,.2,2.4,5.8-.6Zm-5.1,7.7l5.8-.6-.3-2.5-5.8,.6,.3,2.5Zm5.4-20l-3-2.8c-.8,1.1-1.6,2.3-2.5,3.4l5.5-.6Zm5.5,25.4c1.8,3.3,3.4,6.6,4.9,9.8l-2.8-26.9-1.5-.7,1.8,17.1-12.6,1.3,.8,7.7c1.1-.4,2.8-.9,5-1.8l-.8-1.6c-.5-.9-.8-1.6-1-2l6.3-2.9Zm-4.5-21.3l3.6-.4c-1.7-1.4-3.1-2.5-3.9-3.2l.4,3.6Zm15.7,2.1l-.5-5-2,.2c-.6,1.8-1.5,3.6-2.4,5.3l4.9-.5Zm10.3,21.5h.7c1.6-.2,1.6-.3,1.4-2.5l-1.3-12.7-2.3,.2,1.5,15Z"/><path class="f" d="M214.8,67.9c-3.9-1.8-7.9-3.4-12.2-4.9l2.1-4-8.3,.9-.6-6.1,33.6-3.5-.2-2c-11.9,1.8-22.6,3.2-32.2,4.2l-1.1-5.8c6.4-.7,12.8-1.4,19.4-2.2v-1.4l-17.1,1.7-1.6-15.6,16.9-1.7v-1.1l-20.6,2.1-.6-6.2,20.5-2.1-.3-3.3,9-.9,.3,3.3,20.5-2.1,.6,6.2-20.5,2.1v1.1l17-1.7,1.2,12.1c2.3,2.8,4.2,5.1,5.6,7l-6.3,4.7-.6-.8c-.3-.4-.6-.7-.8-1h-.4c-.2,.1-.4,.1-.5,.1l.2,2.4,7.2-.7,.6,6.1-6.9,.7,.2,1.7c.3,3,.6,6-.6,7.3-1.3,1.2-4.7,1.6-8,2-1.5,.2-4.8,.4-9.8,.7l-1.1-6.6,8.7-.6q2.2-.2,2-2.4v-1.2l-18.9,1.9c2.3,.9,4.7,1.8,7,2.9l-3.4,6.7Zm-.8-35.7l-8.8,.9,.2,1.5,8.8-.9-.2-1.5Zm-8.3,5.7l.2,1.6,8.8-.9-.2-1.6-8.8,.9Zm26.2-6l-.2-1.5-8.8,.9,.2,1.5,8.8-.9Zm-8.3,5.8l8.8-.9-.2-1.6-8.8,.9,.2,1.6Zm10.8,4c-.2-.2-.4-.3-.4-.5l-9.9,1v1.3c2.4-.2,8.3-1,10.8-1.3,0-.1-.2-.3-.4-.5Z"/><path class="f" d="M296.5,16.5l-39.2,4,3.5,33.7,39.7-4.1,.7,6.7-39.7,4.1,.2,2.1-8.3,.9-5.1-49.2,47.4-4.9,.7,6.7Zm-35.4,20.5l17.2-1.8,1.6,15.2-17.2,1.8-1.6-15.2Zm2.4-15.3l28.3-2.9,1.4,13.2-28.3,2.9-1.4-13.2Zm5.2,20.3l.4,4.2,3.8-.4-.4-4.2-3.8,.4Zm15.9-14.5l-.2-2.2-12.1,1.3,.2,2.2,12.1-1.3Zm-4.4,7.6l17.2-1.8,1.6,15.2-17.2,1.8-1.6-15.2Zm6.9,5l.4,4.2,3.8-.4-.4-4.2-3.8,.4Z"/></g></svg>