<?xml version="1.0" encoding="UTF-8"?><svg id="a" xmlns="http://www.w3.org/2000/svg" xmlns:xlink="http://www.w3.org/1999/xlink" viewBox="0 0 391 113"><defs><style>.c{fill:url(#b);}.d{fill:none;}.e{fill:#f62930;}.f{fill:#fff;}.g{fill:#822927;}.h,.i{fill:#b6382f;}.i{opacity:.4;}</style><pattern id="b" x="0" y="0" width="8" height="298" patternTransform="translate(-10883.7 1778.2) rotate(65)" patternUnits="userSpaceOnUse" viewBox="0 0 8 298"><g><rect class="d" y="0" width="8" height="298"/><rect class="h" x="4" y="0" width="4" height="298"/><rect class="g" x="0" y="0" width="4" height="298"/></g></pattern></defs><path class="i" d="M44.5,7H391l-37.5,106H7L44.5,7Z"/><path class="c" d="M38.5,0H385l-37.5,106H1L38.5,0Z"/><g><path d="M282.4,86.6c7.9-.6,15.9-1.1,23.8-1.5,5.6-.3,8.5-2.8,8.9-7.8,0-1,.3-2.1,.3-3.1,.1-2.3,.7-4.6,.2-6.8-.8-3.5-2.3-6.8-3.6-10.2-1-2.4-5.1-4.4-7.9-4-3.1,.4-8.9,1.1-12,1.5-.6,0,.5,0,0,0l-9.7,31.9-120.1,5-56.4,3.5c-1.7,0-2.4-.1-3.7,0-5.5,.5-11,.9-16.5,1.5-1,.1-1.8,.9-2.7,1.5-.2,.1-.3,.4-.5,.6-1.4,2-3.3,3.3-6.1,2.9-2.6-.4-4.9-2.6-5.4-5.2-.5-2.7-.8-5.5-.9-8.3-.1-3.2,2-5.6,5.1-6.1,2.2-.4,3.9,.5,5.2,1.8,1.4,1.5,3,1.7,5,1.4,3.5-.5,7.1-.9,10.9-1.3-.2-1.2,35.1-3.3,36.2-3.4,36.5-5.4,36.6-9.9,59.8-12.5s34.8-3.9,43.1-5.3,35.9-5.1,36.5-5.4l19.9-2.7m12.1,5.8c-.9,2.7-2.1,5.4-2.7,8.1-.6,2.6-3.1,5.1-6.1,5.5-4.5,.5-9,.9-13.5,1.3-7.7,.7-15.3,1.3-23,2-10.8,1-21.6,2-32.4,2.9-9.9,.9-19.9,1.7-29.8,2.6-9.7,.9-19.5,1.9-29.3,1.5-9.2-.4-18.3,0-27.5,1-18.9,1.9-37.9,3.3-56.8,5.2-2.2,.2-4.4,1.5-6.4,2.5-1.2,.6-1.3,1.9-.4,2.9,.9,1,2.1,.6,3.1,0,.8-.6,1.5-1.3,2-2.1,.6-1,1.4-1.4,2.7-1.5,2.8-.1,5.6-.4,8.5-.7,8.8-.8,17.6-1.6,26.4-2.4,11.2-1,22.3-2,33.5-2.9,5.1-.4,10.2-1.1,15.3-1,6.6,0,13.2,.6,19.8,.1,14.7-1.1,29.5-1.9,44.3-2.8,14.6-.9,29.1-1.9,43.7-2.8,10-.6,20.1-1.2,30.1-1.8,.6,0,1.5-.7,1.6-1.2,1.3-5.6,.7-11.1-3-16.4Z"/><path class="f" d="M304.2,60.4c3.7,5.4,4.3,10.8,3,16.4-.1,.5-1,1.1-1.6,1.2-10,.7-20.1,1.2-30.1,1.8-14.6,.9-29.1,1.9-43.7,2.8-14.8,.9-29.5,1.7-44.3,2.8-6.6,.5-13.2,0-19.8-.1-5.1,0-10.2,.6-15.3,1-11.2,.9-22.3,1.9-33.5,2.9-8.8,.8-17.6,1.6-26.4,2.4-2.8,.3-5.6,.6-8.5,.7-1.3,0-2.1,.4-2.7,1.5-.5,.8-1.2,1.5-2,2.1-.9,.7-2.1,1.1-3.1,0-.9-1-.8-2.3,.4-2.9,2-1,4.2-2.3,6.4-2.5,18.9-1.8,37.9-3.3,56.8-5.2,9.2-.9,18.3-1.3,27.5-1,9.8,.4,19.5-.6,29.3-1.5,9.9-.9,19.9-1.7,29.8-2.6,10.8-1,21.6-2,32.4-2.9,7.7-.7,15.3-1.3,23-2,4.5-.4,9-.8,13.5-1.3,3-.3,5.5-2.9,6.1-5.5,.7-2.8,1.8-5.4,2.7-8.1Z"/><path class="e" d="M140.9,85.2l26.6-5.6,132.9-12.8s3.1,4.7-5.3,7.5c-8.3,2.9-125.5,10.8-125.5,10.8h-28.6Z"/></g><g><path class="f" d="M97,44.8c-.4,9.2-1.8,18.2-4.3,27.3l-8.5-1.8c2.4-8.6,3.9-17.3,4.4-26.1l8.5,.6Zm6.1-14.2l9-.9,4.2,39.9c.4,3.6,.6,7-.5,8.6-1.3,1.6-4.6,2-7.9,2.4-2,.2-5,.4-9.1,.7l-1.3-7.5c3.6-.2,6.3-.4,8-.6,2.1-.2,2.2-.3,2-2.5l-4.2-40.1Zm24,8.9c4,8.3,7.5,16.9,10.7,26l-8.2,3.1c-2.9-8.5-6.4-17.1-10.5-25.8l8-3.3Z"/><path class="f" d="M137.6,50.2c.5-6.2,.5-13.2,0-21.1l6.2-.2c0,1.4,.2,3.2,.3,5.6h1.1l-.9-8.4,8.3-.9,.9,8.3,4-.4,.6,5.4c2-4.6,3.4-9.6,4-15.2h8.1c-.2,1.7-.6,3.6-1,5.7l18.1-1.9c.7,7.4,1.3,13.5,1.6,18.2,.8,9.4,.8,16.7,.7,20.2,0,1.8-.4,3.1-.9,4.2-1.1,2.2-2,2.3-4.3,2.5-2.7,.3-6,.5-10.2,.7l-.9-5.9c-2,2.8-4.3,5.3-7,7.6l-6.1-5.2c9.4-8,16.1-20.4,18.6-34.1l-1.9,.2c-2.5,11.1-7.8,21.3-14,27.4l-5.9-5c-.1,0-.3,0-.5,.2-.2,0-.4,.1-.5,.2l1.8,16.9-8.3,.9-1.6-14.9c-3.3,1.1-5.8,1.8-7.8,2.4l-1.5-7.1c2.8-.8,5.6-1.6,8.5-2.5l-1.3-12.5-1.7,.2c0,2.9-.1,6.1-.4,9.4l-6.3-1Zm17.5-6.2c.6-.8,1.2-2,2-3.6l-2.9,.3,1.1,10.4c.9-.4,2.3-.9,4.1-1.7l.8,4.9c4-5,6.9-11,8.7-17.9l-2,.2c-1.7,5.1-3.7,9.3-6,12.6l-5.9-5.2Zm19.3,21.6c1.9,0,3.6-.2,5.3-.3,.4,0,.8-.3,1-.8,.5-1,.5-6.1,.2-11.3-1.7,4.4-3.9,8.6-6.5,12.5Z"/><path class="f" d="M214.3,69.3c-3.9-1.7-7.9-3.4-12.2-4.9l2.1-4-8.3,.9-.6-6.1,33.6-3.5-.2-2c-11.9,1.9-22.6,3.3-32.2,4.3l-1.1-5.8c6.4-.7,12.8-1.4,19.4-2.2l-.2-1.4-16.9,1.8-1.6-15.6,16.9-1.8v-1.1l-20.6,2.2-.7-6.2,20.5-2.2-.3-3.3,9-.9,.3,3.3,20.5-2.2,.7,6.2-20.5,2.2v1.1l17-1.8,1.3,12.1c2.3,2.7,4.2,5.1,5.7,7l-6.3,4.7-.6-.8c-.3-.4-.6-.7-.8-1h-.4c-.2,.1-.4,.1-.5,.1l.3,2.4,7.2-.8,.6,6.1-6.9,.7,.2,1.7c.3,3,.6,6-.6,7.3-1.3,1.2-4.7,1.7-8,2-1.5,.2-4.8,.4-9.8,.8l-1.1-6.6,8.7-.6q2.2-.2,2-2.4v-1.2l-18.9,2c2.3,.9,4.7,1.8,7,2.9l-3.4,6.7Zm-.9-35.7l-8.8,.9,.2,1.5,8.8-.9-.2-1.5Zm-8.3,5.7l.2,1.6,8.8-.9-.2-1.6-8.8,.9Zm26.2-6.1l-.2-1.5-8.8,.9,.2,1.5,8.8-.9Zm-8.3,5.8l8.8-.9-.2-1.6-8.8,.9,.2,1.6Zm10.8,4c-.2-.2-.4-.3-.4-.5l-9.9,1v1.3c2.4-.2,8.3-1,10.8-1.3,0-.1-.2-.3-.4-.5Z"/><path class="f" d="M295.9,17.8l-39.2,4.1,3.5,33.7,39.7-4.2,.7,6.7-39.7,4.2,.2,2.1-8.3,.9-5.2-49.2,47.4-5,.7,6.7Zm-35.4,20.6l17.2-1.8,1.6,15.2-17.2,1.8-1.6-15.2Zm2.4-15.3l28.3-3,1.4,13.2-28.3,3-1.4-13.2Zm5.2,20.2l.4,4.2,3.8-.4-.4-4.2-3.8,.4Zm15.8-14.5l-.2-2.2-12.1,1.3,.2,2.2,12.1-1.3Zm-4.4,7.7l17.2-1.8,1.6,15.2-17.2,1.8-1.6-15.2Zm6.9,5l.4,4.2,3.8-.4-.4-4.2-3.8,.4Z"/></g><path d="M308.9,64.9l-2.3-21.6-1.5,.2-1.8-17-3.9,.4-.2-1.8,4.9-.5-2.3-21.6-62.3,6.6,.2,1.7-11.9,1.2-.3-3.3-23.9,2.5,.3,3.3-20.5,2.2,.3,2.9-5.6,.6,.6-4.5-23.2-.3-.2,1.7-19.1,2,.2,2.1-6.7,.2,.5,7.8c0,.1,0,.3,0,.4l-10.1,4.2-1.4-12.9-23.9,2.5,1.4,13.3-14.7-1.1-.4,7.6c-.5,8.2-1.9,16.5-4.1,24.5l-2.2,7.7,16,3.3,1.7,9.8,6.7-.4c4.5-.3,7.3-.5,9.4-.7,4.1-.4,9.7-1,13-5.1l.2-.2c1.6-2.1,2.2-4.5,2.3-7.1l1,2.8,16.7-6.2,1.3,12.4,20.7-2.2,2.8,2.3,4.5-3.9,3.8-.2c4.3-.2,7.7-.5,10.6-.8,3.5-.4,7.4-1.2,10.2-6.6l.2-.3c.3-.8,.6-1.6,.8-2.4l3.2,1.1c4.1,1.5,8,3,11.7,4.7l6.5,2.9,1.5-3,2.1-.2c4.8-.4,7.8-.6,9.3-.7,5.3-.6,9.6-1.2,12.5-4.1l.2-.2c1-1.1,1.7-2.4,2.2-3.7l.7,6.3,23.2-2.4-.2-2.1,39.7-4.2Z"/><g><path class="f" d="M97,44.4c-.4,9.2-1.8,18.2-4.3,27.3l-8.5-1.8c2.4-8.6,3.9-17.3,4.4-26.1l8.5,.6Zm6.1-14.2l9-.9,4.2,39.9c.4,3.6,.6,7-.5,8.6-1.3,1.6-4.6,2-7.9,2.4-2,.2-5,.4-9.1,.7l-1.3-7.5c3.6-.2,6.3-.4,8-.6,2.1-.2,2.2-.3,2-2.5l-4.2-40.1Zm24,8.9c4,8.3,7.5,16.9,10.7,26l-8.2,3.1c-2.9-8.5-6.4-17.1-10.5-25.8l8-3.3Z"/><path class="f" d="M137.6,49.8c.5-6.2,.5-13.2,0-21.1l6.2-.2c0,1.4,.2,3.2,.3,5.6h1.1l-.9-8.4,8.3-.9,.9,8.3,4-.4,.6,5.4c2-4.6,3.4-9.6,4-15.2h8.1c-.2,1.7-.6,3.6-1,5.7l18.1-1.9c.7,7.4,1.3,13.5,1.6,18.2,.8,9.4,.8,16.7,.7,20.2,0,1.8-.4,3.1-.9,4.2-1.1,2.2-2,2.3-4.3,2.5-2.7,.3-6,.5-10.2,.7l-.9-5.9c-2,2.8-4.3,5.3-7,7.6l-6.1-5.2c9.4-8,16.1-20.4,18.6-34.1l-1.9,.2c-2.5,11.1-7.8,21.3-14,27.4l-5.9-5c-.1,0-.3,0-.5,.2-.2,0-.4,.1-.5,.2l1.8,16.9-8.3,.9-1.6-14.9c-3.3,1.1-5.8,1.8-7.8,2.4l-1.5-7.1c2.8-.8,5.6-1.6,8.5-2.5l-1.3-12.5-1.7,.2c0,2.9-.1,6.1-.4,9.4l-6.3-1Zm17.5-6.2c.6-.8,1.2-2,2-3.6l-2.9,.3,1.1,10.4c.9-.4,2.3-.9,4.1-1.7l.8,4.9c4-5,6.9-11,8.7-17.9l-2,.2c-1.7,5.1-3.7,9.3-6,12.6l-5.9-5.2Zm19.3,21.6c1.9,0,3.6-.2,5.3-.3,.4,0,.8-.3,1-.8,.5-1,.5-6.1,.2-11.3-1.7,4.4-3.9,8.6-6.5,12.5Z"/><path class="f" d="M214.3,69c-3.9-1.7-7.9-3.4-12.2-4.9l2.1-4-8.3,.9-.6-6.1,33.6-3.5-.2-2c-11.9,1.9-22.6,3.3-32.2,4.3l-1.1-5.8c6.4-.7,12.8-1.4,19.4-2.2l-.2-1.4-16.9,1.8-1.6-15.6,16.9-1.8v-1.1l-20.6,2.2-.7-6.2,20.5-2.2-.3-3.3,9-.9,.3,3.3,20.5-2.2,.7,6.2-20.5,2.2v1.1l17-1.8,1.3,12.1c2.3,2.7,4.2,5.1,5.7,7l-6.3,4.7-.6-.8c-.3-.4-.6-.7-.8-1h-.4c-.2,.1-.4,.1-.5,.1l.3,2.4,7.2-.8,.6,6.1-6.9,.7,.2,1.7c.3,3,.6,6-.6,7.3-1.3,1.2-4.7,1.7-8,2-1.5,.2-4.8,.4-9.8,.8l-1.1-6.6,8.7-.6q2.2-.2,2-2.4v-1.2l-18.9,2c2.3,.9,4.7,1.8,7,2.9l-3.4,6.7Zm-.9-35.7l-8.8,.9,.2,1.5,8.8-.9-.2-1.5Zm-8.3,5.7l.2,1.6,8.8-.9-.2-1.6-8.8,.9Zm26.2-6.1l-.2-1.5-8.8,.9,.2,1.5,8.8-.9Zm-8.3,5.8l8.8-.9-.2-1.6-8.8,.9,.2,1.6Zm10.8,4c-.2-.2-.4-.3-.4-.5l-9.9,1v1.3c2.4-.2,8.3-1,10.8-1.3,0-.1-.2-.3-.4-.5Z"/><path class="f" d="M295.9,17.5l-39.2,4.1,3.5,33.7,39.7-4.2,.7,6.7-39.7,4.2,.2,2.1-8.3,.9-5.2-49.2,47.4-5,.7,6.7Zm-35.4,20.6l17.2-1.8,1.6,15.2-17.2,1.8-1.6-15.2Zm2.4-15.3l28.3-3,1.4,13.2-28.3,3-1.4-13.2Zm5.2,20.2l.4,4.2,3.8-.4-.4-4.2-3.8,.4Zm15.8-14.5l-.2-2.2-12.1,1.3,.2,2.2,12.1-1.3Zm-4.4,7.7l17.2-1.8,1.6,15.2-17.2,1.8-1.6-15.2Zm6.9,5l.4,4.2,3.8-.4-.4-4.2-3.8,.4Z"/></g></svg>