<?xml version="1.0" encoding="UTF-8"?><svg id="a" xmlns="http://www.w3.org/2000/svg" xmlns:xlink="http://www.w3.org/1999/xlink" viewBox="0 0 391 113"><defs><style>.c{fill:url(#b);}.d{fill:none;}.e{fill:#f62930;}.f{fill:#fff;}.g{fill:#822927;}.h,.i{fill:#b6382f;}.j{fill:#141414;}.i{opacity:.4;}</style><pattern id="b" x="0" y="0" width="8" height="298" patternTransform="translate(-11576.5 1703.8) rotate(65)" patternUnits="userSpaceOnUse" viewBox="0 0 8 298"><g><rect class="d" y="0" width="8" height="298"/><rect class="h" x="4" y="0" width="4" height="298"/><rect class="g" x="0" y="0" width="4" height="298"/></g></pattern></defs><path class="i" d="M44,7H390.5l-37.5,106H6.5L44,7Z"/><path class="c" d="M38,0H384.5l-37.5,106H.5L38,0Z"/><g><path d="M281.9,86.6c7.9-.6,15.9-1.1,23.8-1.5,5.6-.3,8.5-2.8,8.9-7.8,0-1,.3-2.1,.3-3.1,.1-2.3,.7-4.6,.2-6.8-.8-3.5-2.3-6.8-3.6-10.2-1-2.4-5.1-4.4-7.9-4-3.1,.4-8.9,1.1-12,1.5-.6,0,.5,0,0,0l-9.7,31.9-120.1,5-56.4,3.5c-1.7,0-2.4-.1-3.7,0-5.5,.5-11,.9-16.5,1.5-1,.1-1.8,.9-2.7,1.5-.2,.1-.3,.4-.5,.6-1.4,2-3.3,3.3-6.1,2.9-2.6-.4-4.9-2.6-5.4-5.2-.5-2.7-.8-5.5-.9-8.3-.1-3.2,2-5.6,5.1-6.1,2.2-.4,3.9,.5,5.2,1.8,1.4,1.5,3,1.7,5,1.4,3.5-.5,7.1-.9,10.9-1.3-.2-1.2,35.1-3.3,36.2-3.4,36.5-5.4,36.6-9.9,59.8-12.5s34.8-3.9,43.1-5.3,35.9-5.1,36.5-5.4l19.9-2.7m12.1,5.8c-.9,2.7-2.1,5.4-2.7,8.1-.6,2.6-3.1,5.1-6.1,5.5-4.5,.5-9,.9-13.5,1.3-7.7,.7-15.3,1.3-23,2-10.8,1-21.6,2-32.4,2.9-9.9,.9-19.9,1.7-29.8,2.6-9.7,.9-19.5,1.9-29.3,1.5-9.2-.4-18.3,0-27.5,1-18.9,1.9-37.9,3.3-56.8,5.2-2.2,.2-4.4,1.5-6.4,2.5-1.2,.6-1.3,1.9-.4,2.9,.9,1,2.1,.6,3.1,0,.8-.6,1.5-1.3,2-2.1,.6-1,1.4-1.4,2.7-1.5,2.8-.1,5.6-.4,8.5-.7,8.8-.8,17.6-1.6,26.4-2.4,11.2-1,22.3-2,33.5-2.9,5.1-.4,10.2-1.1,15.3-1,6.6,0,13.2,.6,19.8,.1,14.7-1.1,29.5-1.9,44.3-2.8,14.6-.9,29.1-1.9,43.7-2.8,10-.6,20.1-1.2,30.1-1.8,.6,0,1.5-.7,1.6-1.2,1.3-5.6,.7-11.1-3-16.4Z"/><path class="f" d="M303.7,60.4c3.7,5.4,4.3,10.8,3,16.4-.1,.5-1,1.1-1.6,1.2-10,.7-20.1,1.2-30.1,1.8-14.6,.9-29.1,1.9-43.7,2.8-14.8,.9-29.5,1.7-44.3,2.8-6.6,.5-13.2,0-19.8-.1-5.1,0-10.2,.6-15.3,1-11.2,.9-22.3,1.9-33.5,2.9-8.8,.8-17.6,1.6-26.4,2.4-2.8,.3-5.6,.6-8.5,.7-1.3,0-2.1,.4-2.7,1.5-.5,.8-1.2,1.5-2,2.1-.9,.7-2.1,1.1-3.1,0-.9-1-.8-2.3,.4-2.9,2-1,4.2-2.3,6.4-2.5,18.9-1.8,37.9-3.3,56.8-5.2,9.2-.9,18.3-1.3,27.5-1,9.8,.4,19.5-.6,29.3-1.5,9.9-.9,19.9-1.7,29.8-2.6,10.8-1,21.6-2,32.4-2.9,7.7-.7,15.3-1.3,23-2,4.5-.4,9-.8,13.5-1.3,3-.3,5.5-2.9,6.1-5.5,.7-2.8,1.8-5.4,2.7-8.1Z"/><path class="e" d="M140.4,85.2l26.6-5.6,132.9-12.8s3.1,4.7-5.3,7.5c-8.3,2.9-125.5,10.8-125.5,10.8h-28.6Z"/></g><path class="j" d="M307.3,63l-2.1-19.7-1.5,.2-1.8-17-3.9,.4-.4-3.8,4.9-.5-2.1-19.7-60.3,6.3,.2,1.7-13.9,1.5-.3-3.3-21.9,2.3,.3,3.3-20.5,2.2,.6,5.2-2.4,.3-.8-7.7-21.6,2.3v.8l-8-.9-.5,2.1-13.2-.9-.6,6.3c0,.3,0,.5,0,.8l-.5-4.4-62.5,6.6,2.1,19.8h.7l4.3,41.2,6.9-.7h0l31.6-3.3h0c1.8-.2,3.5-.3,5.3-.5,2.2-.2,4.2-.5,6.1-.8,1.5-.2,5.1-.8,7.7-3.4l.3,3.2,21.2-2.2-1.7-16.4,5.6-.6,1.7,16.4,21.6-2.3-1.7-16.4,2.7-.3,.7,6.5,3-.3,6.7,2.4c4.2,1.5,8,3,11.8,4.7l5.7,2.5,1.3-2.6,2.7-.2c4.8-.3,7.8-.6,9.3-.7,5.1-.5,9.2-1.2,11.9-3.8l.2-.2c2-2.1,2.6-4.9,2.6-7.6h.8l1,9.8,21.2-2.2-.2-2.1,39.7-4.2Z"/><g><path class="f" d="M82.3,39.5l-.7-6.8,26.2-2.8,.7,6.8-5.6,.6,.3,3.1,5.7-.6,4,38.2-6.5,.7-.2-2.1-12.3,1.3,.2,2.1-6.9,.7-4-38.2,5.9-.6-.3-3.1-6.6,.7Zm9.4,17c.6-1.8,.7-4.7,.3-8.7h-1.1l.9,8.7Zm.7,6.4l2.7-.3-3-2.5,.3,2.7Zm.9,8.5l12.3-1.3-.3-2.6-12.3,1.3,.3,2.6Zm2.1-30.2l1.6-.2-.3-3.1-1.6,.2,.3,3.1Zm8.9,17.2l-2.8,.3c-2.5,.3-2.8,0-3.1-3.1l-.9-8.3h-.9c.8,8,.7,10.5-1,15.3l9.1-1-.3-3.2Zm-.6-6l-.6-5.7h-1.2l.5,5c0,.9,.1,.9,1,.8h.3Zm24.1,14.9c0-.9,0-3.7-.4-8.4h8.4c.2,2.8,.3,4.9,.4,6.6,.1,3.3-.2,6.1-.5,7.4-.7,2.2-2.6,2.8-5,3.1-1.8,.3-3.8,.6-5.8,.8-1.7,.2-3.3,.3-4.9,.3-2,0-2.9,0-3.8-.4-1.3-.6-1.7-3.9-2-6.9l-2.5-23.5,12.8-1.3-1-9.4-13.1,1.4-.8-7.3,21.7-2.3,2.9,27.2-8.5,.9-.3-3.1-4.8,.5,1.5,14.4c.2,2,.2,2,1.5,1.9h.7c.3,0,.6,0,.7,0,.2,0,.5,0,.9-.1h.9c.8-.2,1.2-.7,1.3-1.7Z"/><path class="f" d="M186.2,28.2l.7,7.1-9.8,1,1.2,11.4,11.2-1.2,.8,7.4-11.2,1.2,1.7,16.4-8.7,.9-1.7-16.4-16.5,1.7-.8-7.4,16.5-1.7-1.2-11.4-7.8,.8c-1.1,3.3-2.7,6.9-4.5,10.8l-5.5-2.7,3,28.3-8.3,.9-2.4-22.6c-1,2.2-2,3.9-2.9,5l-3.4-9.6c4.2-6.6,6.4-13.6,7.3-23.4l8.1,.5c-.2,4.8-.9,9.4-2.1,13.8l.4,3.9c2.8-6.3,5-12.7,6.4-19.2l7.6,.9c-.3,1.8-.8,3.8-1.5,6.2l4.8-.5-.8-7.7,8.7-.9,.8,7.7,9.8-1Z"/><path class="f" d="M213.8,67.9c-3.9-1.7-7.9-3.4-12.2-4.9l2.1-4-8.3,.9-.6-6.1,33.6-3.5-.2-2c-11.9,1.9-22.6,3.3-32.2,4.3l-1.1-5.8c6.4-.7,12.8-1.4,19.4-2.2l-.2-1.4-16.9,1.8-1.6-15.6,16.9-1.8v-1.1l-20.6,2.2-.7-6.2,20.5-2.2-.3-3.3,9-.9,.3,3.3,20.5-2.2,.7,6.2-20.5,2.2v1.1l17-1.8,1.3,12.1c2.3,2.7,4.2,5.1,5.7,7l-6.3,4.7-.6-.8c-.3-.4-.6-.7-.8-1h-.4c-.2,.1-.4,.1-.5,.1l.3,2.4,7.2-.8,.6,6.1-6.9,.7,.2,1.7c.3,3,.6,6-.6,7.3-1.3,1.2-4.7,1.7-8,2-1.5,.2-4.8,.4-9.8,.8l-1.1-6.6,8.7-.6q2.2-.2,2-2.4v-1.2l-18.9,2c2.3,.9,4.7,1.8,7,2.9l-3.4,6.7Zm-.9-35.7l-8.8,.9,.2,1.5,8.8-.9-.2-1.5Zm-8.3,5.7l.2,1.6,8.8-.9-.2-1.6-8.8,.9Zm26.2-6.1l-.2-1.5-8.8,.9,.2,1.5,8.8-.9Zm-8.3,5.8l8.8-.9-.2-1.6-8.8,.9,.2,1.6Zm10.8,4c-.2-.2-.4-.3-.4-.5l-9.9,1v1.3c2.4-.2,8.3-1,10.8-1.3,0-.1-.2-.3-.4-.5Z"/><path class="f" d="M295.4,16.5l-39.2,4.1,3.5,33.7,39.7-4.2,.7,6.7-39.7,4.2,.2,2.1-8.3,.9-5.2-49.2,47.4-5,.7,6.7Zm-35.4,20.6l17.2-1.8,1.6,15.2-17.2,1.8-1.6-15.2Zm2.4-15.3l28.3-3,1.4,13.2-28.3,3-1.4-13.2Zm5.2,20.2l.4,4.2,3.8-.4-.4-4.2-3.8,.4Zm15.8-14.5l-.2-2.2-12.1,1.3,.2,2.2,12.1-1.3Zm-4.4,7.7l17.2-1.8,1.6,15.2-17.2,1.8-1.6-15.2Zm6.9,5l.4,4.2,3.8-.4-.4-4.2-3.8,.4Z"/></g></svg>