<svg width="1022" height="159" viewBox="0 0 1022 159" fill="none" xmlns="http://www.w3.org/2000/svg">
<path d="M792 44H869V159H792V44Z" fill="#B6382F" fill-opacity="0.4"/>
<path d="M0 44H1021.15V159H0V44Z" fill="black" fill-opacity="0.4"/>
<path fill-rule="evenodd" clip-rule="evenodd" d="M1020.15 45H1V158H1020.15V45ZM0 44V159H1021.15V44H0Z" fill="#777777"/>
<path d="M0 106H1021V105H0V106Z" fill="#777777"/>
<path fill-rule="evenodd" clip-rule="evenodd" d="M96 159V41H97V159H96Z" fill="white" fill-opacity="0.5"/>
<path fill-rule="evenodd" clip-rule="evenodd" d="M250 159V41H251V159H250Z" fill="white" fill-opacity="0.5"/>
<path fill-rule="evenodd" clip-rule="evenodd" d="M173 159V41H174V159H173Z" fill="white" fill-opacity="0.5"/>
<path fill-rule="evenodd" clip-rule="evenodd" d="M327 159V41H328V159H327Z" fill="white" fill-opacity="0.5"/>
<path fill-rule="evenodd" clip-rule="evenodd" d="M404 159V41H405V159H404Z" fill="white" fill-opacity="0.5"/>
<path fill-rule="evenodd" clip-rule="evenodd" d="M479 159V41H480V159H479Z" fill="white" fill-opacity="0.5"/>
<path fill-rule="evenodd" clip-rule="evenodd" d="M556 159V41H557V159H556Z" fill="white" fill-opacity="0.5"/>
<path fill-rule="evenodd" clip-rule="evenodd" d="M633 159V41H634V159H633Z" fill="white" fill-opacity="0.5"/>
<path fill-rule="evenodd" clip-rule="evenodd" d="M710 159V41H711V159H710Z" fill="white" fill-opacity="0.5"/>
<path fill-rule="evenodd" clip-rule="evenodd" d="M791 159V41H792V159H791Z" fill="white" fill-opacity="0.5"/>
<path fill-rule="evenodd" clip-rule="evenodd" d="M869 159V41H870V159H869Z" fill="white" fill-opacity="0.5"/>
<path fill-rule="evenodd" clip-rule="evenodd" d="M949 159V41H950V159H949Z" fill="white" fill-opacity="0.5"/>
<path d="M0 0H1021V53H0V0Z" fill="url(#paint0_linear_473_206)"/>
<path d="M18.94 90.28C20.94 90.28 22.62 89.54 23.6 88.54V82.16H18.58V84.08H21.48V87.52C20.98 87.98 20.08 88.24 19.18 88.24C16.14 88.24 14.52 86.1 14.52 82.6C14.52 79.16 16.32 77.04 19.08 77.04C20.48 77.04 21.38 77.62 22.12 78.36L23.38 76.86C22.48 75.94 21.08 75.02 19 75.02C15.1 75.02 12.12 77.88 12.12 82.68C12.12 87.52 15.02 90.28 18.94 90.28Z" fill="white"/>
<path d="M32.0634 90.28C35.3234 90.28 37.5234 88.48 37.5234 83.7V75.28H35.2834V83.84C35.2834 87.16 33.9034 88.24 32.0634 88.24C30.2234 88.24 28.9034 87.16 28.9034 83.84V75.28H26.5834V83.7C26.5834 88.48 28.7834 90.28 32.0634 90.28Z" fill="white"/>
<path d="M41.0114 90H49.9514V88.04H43.3514V83.3H48.7314V81.32H43.3514V77.24H49.7314V75.28H41.0114V90Z" fill="white"/>
<path d="M56.9236 90.28C60.1436 90.28 62.1036 88.34 62.1036 85.98C62.1036 83.82 60.8436 82.74 59.1036 82L57.0836 81.16C55.8836 80.66 54.7036 80.18 54.7036 78.92C54.7036 77.76 55.6636 77.04 57.1636 77.04C58.4636 77.04 59.5036 77.54 60.4236 78.34L61.6236 76.88C60.5236 75.74 58.9036 75.02 57.1636 75.02C54.3636 75.02 52.3436 76.76 52.3436 79.08C52.3436 81.22 53.9036 82.34 55.3236 82.92L57.3636 83.82C58.7236 84.4 59.7236 84.82 59.7236 86.16C59.7236 87.42 58.7236 88.24 56.9636 88.24C55.5436 88.24 54.0836 87.56 53.0436 86.5L51.6836 88.12C53.0236 89.48 54.8836 90.28 56.9236 90.28Z" fill="white"/>
<path d="M67.0247 90H69.3647V77.24H73.6847V75.28H62.7047V77.24H67.0247V90Z" fill="white"/>
<path d="M22.8 27.92H24.72V33.38C24.0266 33.9533 23.22 34.3933 22.3 34.7C21.38 35.0067 20.42 35.16 19.42 35.16C18.0066 35.16 16.7333 34.8533 15.6 34.24C14.4666 33.6133 13.5733 32.76 12.92 31.68C12.28 30.5867 11.96 29.36 11.96 28C11.96 26.64 12.28 25.4133 12.92 24.32C13.5733 23.2267 14.4666 22.3733 15.6 21.76C16.7466 21.1467 18.0333 20.84 19.46 20.84C20.58 20.84 21.5933 21.0267 22.5 21.4C23.42 21.76 24.2 22.2933 24.84 23L23.6 24.24C22.48 23.16 21.1266 22.62 19.54 22.62C18.4733 22.62 17.5133 22.8533 16.66 23.32C15.82 23.7733 15.16 24.4133 14.68 25.24C14.2 26.0533 13.96 26.9733 13.96 28C13.96 29.0133 14.2 29.9333 14.68 30.76C15.16 31.5733 15.82 32.2133 16.66 32.68C17.5133 33.1467 18.4666 33.38 19.52 33.38C20.7733 33.38 21.8666 33.08 22.8 32.48V27.92Z" fill="white"/>
<path d="M31.8292 24.3C33.2958 24.3 34.4158 24.66 35.1892 25.38C35.9758 26.1 36.3692 27.1733 36.3692 28.6V35H34.5492V33.6C34.2292 34.0933 33.7692 34.4733 33.1692 34.74C32.5825 34.9933 31.8825 35.12 31.0692 35.12C29.8825 35.12 28.9292 34.8333 28.2092 34.26C27.5025 33.6867 27.1492 32.9333 27.1492 32C27.1492 31.0667 27.4892 30.32 28.1692 29.76C28.8492 29.1867 29.9292 28.9 31.4092 28.9H34.4492V28.52C34.4492 27.6933 34.2092 27.06 33.7292 26.62C33.2492 26.18 32.5425 25.96 31.6092 25.96C30.9825 25.96 30.3692 26.0667 29.7692 26.28C29.1692 26.48 28.6625 26.7533 28.2492 27.1L27.4492 25.66C27.9958 25.22 28.6492 24.8867 29.4092 24.66C30.1692 24.42 30.9758 24.3 31.8292 24.3ZM31.3892 33.64C32.1225 33.64 32.7558 33.48 33.2892 33.16C33.8225 32.8267 34.2092 32.36 34.4492 31.76V30.28H31.4892C29.8625 30.28 29.0492 30.8267 29.0492 31.92C29.0492 32.4533 29.2558 32.8733 29.6692 33.18C30.0825 33.4867 30.6558 33.64 31.3892 33.64Z" fill="white"/>
<path d="M52.8823 24.3C54.2156 24.3 55.269 24.6867 56.0423 25.46C56.829 26.2333 57.2223 27.38 57.2223 28.9V35H55.3023V29.12C55.3023 28.0933 55.0623 27.32 54.5823 26.8C54.1156 26.28 53.4423 26.02 52.5623 26.02C51.589 26.02 50.8156 26.3267 50.2423 26.94C49.669 27.54 49.3823 28.4067 49.3823 29.54V35H47.4623V29.12C47.4623 28.0933 47.2223 27.32 46.7423 26.8C46.2756 26.28 45.6023 26.02 44.7223 26.02C43.749 26.02 42.9756 26.3267 42.4023 26.94C41.829 27.54 41.5423 28.4067 41.5423 29.54V35H39.6223V24.4H41.4623V25.98C41.849 25.4333 42.3556 25.02 42.9823 24.74C43.609 24.4467 44.3223 24.3 45.1223 24.3C45.949 24.3 46.6823 24.4667 47.3223 24.8C47.9623 25.1333 48.4556 25.62 48.8023 26.26C49.2023 25.6467 49.7556 25.1667 50.4623 24.82C51.1823 24.4733 51.989 24.3 52.8823 24.3Z" fill="white"/>
<path d="M70.0937 29.76C70.0937 29.9067 70.0804 30.1 70.0537 30.34H61.4537C61.5737 31.2733 61.9804 32.0267 62.6737 32.6C63.3804 33.16 64.2537 33.44 65.2937 33.44C66.5604 33.44 67.5804 33.0133 68.3537 32.16L69.4137 33.4C68.9337 33.96 68.3337 34.3867 67.6137 34.68C66.907 34.9733 66.1137 35.12 65.2337 35.12C64.1137 35.12 63.1204 34.8933 62.2537 34.44C61.387 33.9733 60.7137 33.3267 60.2337 32.5C59.767 31.6733 59.5337 30.74 59.5337 29.7C59.5337 28.6733 59.7604 27.7467 60.2137 26.92C60.6804 26.0933 61.3137 25.4533 62.1137 25C62.927 24.5333 63.8404 24.3 64.8537 24.3C65.867 24.3 66.767 24.5333 67.5537 25C68.3537 25.4533 68.9737 26.0933 69.4137 26.92C69.867 27.7467 70.0937 28.6933 70.0937 29.76ZM64.8537 25.92C63.9337 25.92 63.1604 26.2 62.5337 26.76C61.9204 27.32 61.5604 28.0533 61.4537 28.96H68.2537C68.147 28.0667 67.7804 27.34 67.1537 26.78C66.5404 26.2067 65.7737 25.92 64.8537 25.92Z" fill="white"/>
<path d="M85.2309 27.66C86.0309 27.9667 86.6442 28.4067 87.0709 28.98C87.4976 29.5533 87.7109 30.24 87.7109 31.04C87.7109 31.88 87.4842 32.6133 87.0309 33.24C86.5776 33.8533 85.9309 34.3267 85.0909 34.66C84.2509 34.9933 83.2642 35.16 82.1309 35.16C81.0109 35.16 80.0309 34.9933 79.1909 34.66C78.3642 34.3267 77.7242 33.8533 77.2709 33.24C76.8176 32.6133 76.5909 31.88 76.5909 31.04C76.5909 30.24 76.7976 29.5533 77.2109 28.98C77.6376 28.4067 78.2509 27.9667 79.0509 27.66C78.4109 27.3533 77.9242 26.9467 77.5909 26.44C77.2576 25.9333 77.0909 25.3333 77.0909 24.64C77.0909 23.8667 77.2976 23.1933 77.7109 22.62C78.1376 22.0467 78.7309 21.6067 79.4909 21.3C80.2509 20.9933 81.1309 20.84 82.1309 20.84C83.1442 20.84 84.0309 20.9933 84.7909 21.3C85.5642 21.6067 86.1576 22.0467 86.5709 22.62C86.9976 23.1933 87.2109 23.8667 87.2109 24.64C87.2109 25.32 87.0376 25.92 86.6909 26.44C86.3576 26.9467 85.8709 27.3533 85.2309 27.66ZM82.1309 22.46C81.1842 22.46 80.4376 22.6667 79.8909 23.08C79.3442 23.48 79.0709 24.0267 79.0709 24.72C79.0709 25.4133 79.3376 25.96 79.8709 26.36C80.4176 26.76 81.1709 26.96 82.1309 26.96C83.1042 26.96 83.8642 26.76 84.4109 26.36C84.9709 25.96 85.2509 25.4133 85.2509 24.72C85.2509 24.0267 84.9642 23.48 84.3909 23.08C83.8309 22.6667 83.0776 22.46 82.1309 22.46ZM82.1309 33.54C83.2376 33.54 84.1109 33.3133 84.7509 32.86C85.3909 32.3933 85.7109 31.7667 85.7109 30.98C85.7109 30.2067 85.3909 29.6 84.7509 29.16C84.1109 28.7067 83.2376 28.48 82.1309 28.48C81.0242 28.48 80.1576 28.7067 79.5309 29.16C78.9042 29.6 78.5909 30.2067 78.5909 30.98C78.5909 31.7667 78.9042 32.3933 79.5309 32.86C80.1576 33.3133 81.0242 33.54 82.1309 33.54Z" fill="white"/>
<path d="M136.3 21V35H134.32V22.74H131.16V21H136.3Z" fill="white"/>
<path d="M134.72 87.2C133.6 87.2 132.6 86.92 131.72 86.36C130.84 85.7867 130.147 84.96 129.64 83.88C129.133 82.7867 128.88 81.4933 128.88 80C128.88 78.5067 129.133 77.22 129.64 76.14C130.147 75.0467 130.84 74.22 131.72 73.66C132.6 73.0867 133.6 72.8 134.72 72.8C135.84 72.8 136.84 73.0867 137.72 73.66C138.613 74.22 139.313 75.0467 139.82 76.14C140.327 77.22 140.58 78.5067 140.58 80C140.58 81.4933 140.327 82.7867 139.82 83.88C139.313 84.96 138.613 85.7867 137.72 86.36C136.84 86.92 135.84 87.2 134.72 87.2ZM134.72 84.94C135.72 84.94 136.507 84.5267 137.08 83.7C137.667 82.8733 137.96 81.64 137.96 80C137.96 78.36 137.667 77.1267 137.08 76.3C136.507 75.4733 135.72 75.06 134.72 75.06C133.733 75.06 132.947 75.4733 132.36 76.3C131.787 77.1267 131.5 78.36 131.5 80C131.5 81.64 131.787 82.8733 132.36 83.7C132.947 84.5267 133.733 84.94 134.72 84.94Z" fill="white"/>
<path d="M140.02 137.8V140H129.7V138.26L135.26 132.98C135.887 132.38 136.307 131.86 136.52 131.42C136.747 130.967 136.86 130.52 136.86 130.08C136.86 129.427 136.64 128.927 136.2 128.58C135.76 128.233 135.113 128.06 134.26 128.06C132.833 128.06 131.74 128.547 130.98 129.52L129.16 128.12C129.707 127.387 130.44 126.82 131.36 126.42C132.293 126.007 133.333 125.8 134.48 125.8C136 125.8 137.213 126.16 138.12 126.88C139.027 127.6 139.48 128.58 139.48 129.82C139.48 130.58 139.32 131.293 139 131.96C138.68 132.627 138.067 133.387 137.16 134.24L133.42 137.8H140.02Z" fill="white"/>
<path d="M216.8 33.26V35H206.74V33.64L212.44 28.14C213.133 27.4733 213.6 26.9 213.84 26.42C214.08 25.9267 214.2 25.4333 214.2 24.94C214.2 24.2067 213.94 23.64 213.42 23.24C212.913 22.8267 212.18 22.62 211.22 22.62C209.673 22.62 208.48 23.1267 207.64 24.14L206.28 22.96C206.827 22.2933 207.54 21.7733 208.42 21.4C209.313 21.0267 210.307 20.84 211.4 20.84C212.867 20.84 214.033 21.1933 214.9 21.9C215.767 22.5933 216.2 23.54 216.2 24.74C216.2 25.4867 216.04 26.1933 215.72 26.86C215.4 27.5267 214.793 28.2867 213.9 29.14L209.62 33.26H216.8Z" fill="white"/>
<path d="M211.72 87.2C210.6 87.2 209.6 86.92 208.72 86.36C207.84 85.7867 207.147 84.96 206.64 83.88C206.133 82.7867 205.88 81.4933 205.88 80C205.88 78.5067 206.133 77.22 206.64 76.14C207.147 75.0467 207.84 74.22 208.72 73.66C209.6 73.0867 210.6 72.8 211.72 72.8C212.84 72.8 213.84 73.0867 214.72 73.66C215.613 74.22 216.313 75.0467 216.82 76.14C217.327 77.22 217.58 78.5067 217.58 80C217.58 81.4933 217.327 82.7867 216.82 83.88C216.313 84.96 215.613 85.7867 214.72 86.36C213.84 86.92 212.84 87.2 211.72 87.2ZM211.72 84.94C212.72 84.94 213.507 84.5267 214.08 83.7C214.667 82.8733 214.96 81.64 214.96 80C214.96 78.36 214.667 77.1267 214.08 76.3C213.507 75.4733 212.72 75.06 211.72 75.06C210.733 75.06 209.947 75.4733 209.36 76.3C208.787 77.1267 208.5 78.36 208.5 80C208.5 81.64 208.787 82.8733 209.36 83.7C209.947 84.5267 210.733 84.94 211.72 84.94Z" fill="white"/>
<path d="M211.72 140.2C210.6 140.2 209.6 139.92 208.72 139.36C207.84 138.787 207.147 137.96 206.64 136.88C206.133 135.787 205.88 134.493 205.88 133C205.88 131.507 206.133 130.22 206.64 129.14C207.147 128.047 207.84 127.22 208.72 126.66C209.6 126.087 210.6 125.8 211.72 125.8C212.84 125.8 213.84 126.087 214.72 126.66C215.613 127.22 216.313 128.047 216.82 129.14C217.327 130.22 217.58 131.507 217.58 133C217.58 134.493 217.327 135.787 216.82 136.88C216.313 137.96 215.613 138.787 214.72 139.36C213.84 139.92 212.84 140.2 211.72 140.2ZM211.72 137.94C212.72 137.94 213.507 137.527 214.08 136.7C214.667 135.873 214.96 134.64 214.96 133C214.96 131.36 214.667 130.127 214.08 129.3C213.507 128.473 212.72 128.06 211.72 128.06C210.733 128.06 209.947 128.473 209.36 129.3C208.787 130.127 208.5 131.36 208.5 133C208.5 134.64 208.787 135.873 209.36 136.7C209.947 137.527 210.733 137.94 211.72 137.94Z" fill="white"/>
<path d="M289.32 26.88C290.693 27.0133 291.74 27.44 292.46 28.16C293.18 28.8667 293.54 29.7733 293.54 30.88C293.54 31.68 293.34 32.4067 292.94 33.06C292.54 33.7 291.94 34.2133 291.14 34.6C290.353 34.9733 289.387 35.16 288.24 35.16C287.24 35.16 286.28 35.0133 285.36 34.72C284.44 34.4133 283.687 33.9933 283.1 33.46L284.02 31.88C284.5 32.3333 285.113 32.7 285.86 32.98C286.607 33.2467 287.4 33.38 288.24 33.38C289.28 33.38 290.087 33.16 290.66 32.72C291.247 32.28 291.54 31.6733 291.54 30.9C291.54 30.1267 291.253 29.5267 290.68 29.1C290.107 28.6733 289.24 28.46 288.08 28.46H286.96V27.06L290.48 22.74H283.74V21H292.98V22.36L289.32 26.88Z" fill="white"/>
<path d="M288.72 87.2C287.6 87.2 286.6 86.92 285.72 86.36C284.84 85.7867 284.147 84.96 283.64 83.88C283.133 82.7867 282.88 81.4933 282.88 80C282.88 78.5067 283.133 77.22 283.64 76.14C284.147 75.0467 284.84 74.22 285.72 73.66C286.6 73.0867 287.6 72.8 288.72 72.8C289.84 72.8 290.84 73.0867 291.72 73.66C292.613 74.22 293.313 75.0467 293.82 76.14C294.327 77.22 294.58 78.5067 294.58 80C294.58 81.4933 294.327 82.7867 293.82 83.88C293.313 84.96 292.613 85.7867 291.72 86.36C290.84 86.92 289.84 87.2 288.72 87.2ZM288.72 84.94C289.72 84.94 290.507 84.5267 291.08 83.7C291.667 82.8733 291.96 81.64 291.96 80C291.96 78.36 291.667 77.1267 291.08 76.3C290.507 75.4733 289.72 75.06 288.72 75.06C287.733 75.06 286.947 75.4733 286.36 76.3C285.787 77.1267 285.5 78.36 285.5 80C285.5 81.64 285.787 82.8733 286.36 83.7C286.947 84.5267 287.733 84.94 288.72 84.94Z" fill="white"/>
<path d="M288.72 140.2C287.6 140.2 286.6 139.92 285.72 139.36C284.84 138.787 284.147 137.96 283.64 136.88C283.133 135.787 282.88 134.493 282.88 133C282.88 131.507 283.133 130.22 283.64 129.14C284.147 128.047 284.84 127.22 285.72 126.66C286.6 126.087 287.6 125.8 288.72 125.8C289.84 125.8 290.84 126.087 291.72 126.66C292.613 127.22 293.313 128.047 293.82 129.14C294.327 130.22 294.58 131.507 294.58 133C294.58 134.493 294.327 135.787 293.82 136.88C293.313 137.96 292.613 138.787 291.72 139.36C290.84 139.92 289.84 140.2 288.72 140.2ZM288.72 137.94C289.72 137.94 290.507 137.527 291.08 136.7C291.667 135.873 291.96 134.64 291.96 133C291.96 131.36 291.667 130.127 291.08 129.3C290.507 128.473 289.72 128.06 288.72 128.06C287.733 128.06 286.947 128.473 286.36 129.3C285.787 130.127 285.5 131.36 285.5 133C285.5 134.64 285.787 135.873 286.36 136.7C286.947 137.527 287.733 137.94 288.72 137.94Z" fill="white"/>
<path d="M372.14 31.56H369.48V35H367.54V31.56H359.76V30.16L366.92 21H369.08L362.22 29.84H367.6V26.8H369.48V29.84H372.14V31.56Z" fill="white"/>
<path d="M365.72 87.2C364.6 87.2 363.6 86.92 362.72 86.36C361.84 85.7867 361.147 84.96 360.64 83.88C360.133 82.7867 359.88 81.4933 359.88 80C359.88 78.5067 360.133 77.22 360.64 76.14C361.147 75.0467 361.84 74.22 362.72 73.66C363.6 73.0867 364.6 72.8 365.72 72.8C366.84 72.8 367.84 73.0867 368.72 73.66C369.613 74.22 370.313 75.0467 370.82 76.14C371.327 77.22 371.58 78.5067 371.58 80C371.58 81.4933 371.327 82.7867 370.82 83.88C370.313 84.96 369.613 85.7867 368.72 86.36C367.84 86.92 366.84 87.2 365.72 87.2ZM365.72 84.94C366.72 84.94 367.507 84.5267 368.08 83.7C368.667 82.8733 368.96 81.64 368.96 80C368.96 78.36 368.667 77.1267 368.08 76.3C367.507 75.4733 366.72 75.06 365.72 75.06C364.733 75.06 363.947 75.4733 363.36 76.3C362.787 77.1267 362.5 78.36 362.5 80C362.5 81.64 362.787 82.8733 363.36 83.7C363.947 84.5267 364.733 84.94 365.72 84.94Z" fill="white"/>
<path d="M365.72 140.2C364.6 140.2 363.6 139.92 362.72 139.36C361.84 138.787 361.147 137.96 360.64 136.88C360.133 135.787 359.88 134.493 359.88 133C359.88 131.507 360.133 130.22 360.64 129.14C361.147 128.047 361.84 127.22 362.72 126.66C363.6 126.087 364.6 125.8 365.72 125.8C366.84 125.8 367.84 126.087 368.72 126.66C369.613 127.22 370.313 128.047 370.82 129.14C371.327 130.22 371.58 131.507 371.58 133C371.58 134.493 371.327 135.787 370.82 136.88C370.313 137.96 369.613 138.787 368.72 139.36C367.84 139.92 366.84 140.2 365.72 140.2ZM365.72 137.94C366.72 137.94 367.507 137.527 368.08 136.7C368.667 135.873 368.96 134.64 368.96 133C368.96 131.36 368.667 130.127 368.08 129.3C367.507 128.473 366.72 128.06 365.72 128.06C364.733 128.06 363.947 128.473 363.36 129.3C362.787 130.127 362.5 131.36 362.5 133C362.5 134.64 362.787 135.873 363.36 136.7C363.947 137.527 364.733 137.94 365.72 137.94Z" fill="white"/>
<path d="M440.96 26.58C442.96 26.58 444.427 26.96 445.36 27.72C446.307 28.4667 446.78 29.4933 446.78 30.8C446.78 31.6267 446.58 32.3733 446.18 33.04C445.793 33.6933 445.2 34.2133 444.4 34.6C443.613 34.9733 442.64 35.16 441.48 35.16C440.493 35.16 439.54 35.0133 438.62 34.72C437.7 34.4133 436.94 33.9933 436.34 33.46L437.26 31.88C437.74 32.3333 438.353 32.7 439.1 32.98C439.847 33.2467 440.633 33.38 441.46 33.38C442.513 33.38 443.327 33.16 443.9 32.72C444.487 32.2667 444.78 31.6533 444.78 30.88C444.78 30.04 444.46 29.4067 443.82 28.98C443.18 28.54 442.087 28.32 440.54 28.32H437.36L438.1 21H446V22.74H439.78L439.4 26.58H440.96Z" fill="white"/>
<path d="M443.72 73V87H441.12V75.18H438.16V73H443.72Z" fill="white"/>
<path d="M442.84 131.78C444.133 131.94 445.12 132.38 445.8 133.1C446.48 133.82 446.82 134.72 446.82 135.8C446.82 136.613 446.613 137.353 446.2 138.02C445.787 138.687 445.16 139.22 444.32 139.62C443.493 140.007 442.48 140.2 441.28 140.2C440.28 140.2 439.313 140.06 438.38 139.78C437.46 139.487 436.673 139.087 436.02 138.58L437.14 136.56C437.647 136.987 438.26 137.327 438.98 137.58C439.713 137.82 440.467 137.94 441.24 137.94C442.16 137.94 442.88 137.753 443.4 137.38C443.933 136.993 444.2 136.473 444.2 135.82C444.2 135.167 443.947 134.66 443.44 134.3C442.947 133.927 442.187 133.74 441.16 133.74H439.88V131.96L443.06 128.18H436.7V126H446.24V127.74L442.84 131.78Z" fill="white"/>
<path d="M518 26.5C518.92 26.5 519.74 26.6733 520.46 27.02C521.193 27.3667 521.767 27.8667 522.18 28.52C522.593 29.16 522.8 29.9 522.8 30.74C522.8 31.62 522.58 32.3933 522.14 33.06C521.713 33.7267 521.12 34.2467 520.36 34.62C519.613 34.98 518.773 35.16 517.84 35.16C515.96 35.16 514.507 34.5533 513.48 33.34C512.467 32.1267 511.96 30.4067 511.96 28.18C511.96 26.62 512.233 25.2933 512.78 24.2C513.34 23.0933 514.113 22.26 515.1 21.7C516.1 21.1267 517.26 20.84 518.58 20.84C519.26 20.84 519.9 20.9133 520.5 21.06C521.1 21.1933 521.62 21.3933 522.06 21.66L521.3 23.22C520.633 22.78 519.74 22.56 518.62 22.56C517.167 22.56 516.027 23.0133 515.2 23.92C514.373 24.8133 513.96 26.12 513.96 27.84C513.96 28.0533 513.967 28.22 513.98 28.34C514.38 27.74 514.927 27.2867 515.62 26.98C516.327 26.66 517.12 26.5 518 26.5ZM517.76 33.54C518.68 33.54 519.427 33.2933 520 32.8C520.573 32.3067 520.86 31.6467 520.86 30.82C520.86 29.9933 520.567 29.34 519.98 28.86C519.407 28.3667 518.633 28.12 517.66 28.12C517.033 28.12 516.473 28.24 515.98 28.48C515.5 28.72 515.12 29.0467 514.84 29.46C514.573 29.8733 514.44 30.3333 514.44 30.84C514.44 31.3333 514.567 31.7867 514.82 32.2C515.087 32.6 515.467 32.9267 515.96 33.18C516.467 33.42 517.067 33.54 517.76 33.54Z" fill="white"/>
<path d="M517.72 87.2C516.6 87.2 515.6 86.92 514.72 86.36C513.84 85.7867 513.147 84.96 512.64 83.88C512.133 82.7867 511.88 81.4933 511.88 80C511.88 78.5067 512.133 77.22 512.64 76.14C513.147 75.0467 513.84 74.22 514.72 73.66C515.6 73.0867 516.6 72.8 517.72 72.8C518.84 72.8 519.84 73.0867 520.72 73.66C521.613 74.22 522.313 75.0467 522.82 76.14C523.327 77.22 523.58 78.5067 523.58 80C523.58 81.4933 523.327 82.7867 522.82 83.88C522.313 84.96 521.613 85.7867 520.72 86.36C519.84 86.92 518.84 87.2 517.72 87.2ZM517.72 84.94C518.72 84.94 519.507 84.5267 520.08 83.7C520.667 82.8733 520.96 81.64 520.96 80C520.96 78.36 520.667 77.1267 520.08 76.3C519.507 75.4733 518.72 75.06 517.72 75.06C516.733 75.06 515.947 75.4733 515.36 76.3C514.787 77.1267 514.5 78.36 514.5 80C514.5 81.64 514.787 82.8733 515.36 83.7C515.947 84.5267 516.733 84.94 517.72 84.94Z" fill="white"/>
<path d="M519.72 126V140H517.12V128.18H514.16V126H519.72Z" fill="white"/>
<path d="M600.16 21V22.36L594.5 35H592.38L597.92 22.74H591.52V25.24H589.6V21H600.16Z" fill="white"/>
<path d="M594.72 87.2C593.6 87.2 592.6 86.92 591.72 86.36C590.84 85.7867 590.147 84.96 589.64 83.88C589.133 82.7867 588.88 81.4933 588.88 80C588.88 78.5067 589.133 77.22 589.64 76.14C590.147 75.0467 590.84 74.22 591.72 73.66C592.6 73.0867 593.6 72.8 594.72 72.8C595.84 72.8 596.84 73.0867 597.72 73.66C598.613 74.22 599.313 75.0467 599.82 76.14C600.327 77.22 600.58 78.5067 600.58 80C600.58 81.4933 600.327 82.7867 599.82 83.88C599.313 84.96 598.613 85.7867 597.72 86.36C596.84 86.92 595.84 87.2 594.72 87.2ZM594.72 84.94C595.72 84.94 596.507 84.5267 597.08 83.7C597.667 82.8733 597.96 81.64 597.96 80C597.96 78.36 597.667 77.1267 597.08 76.3C596.507 75.4733 595.72 75.06 594.72 75.06C593.733 75.06 592.947 75.4733 592.36 76.3C591.787 77.1267 591.5 78.36 591.5 80C591.5 81.64 591.787 82.8733 592.36 83.7C592.947 84.5267 593.733 84.94 594.72 84.94Z" fill="white"/>
<path d="M594.72 140.2C593.6 140.2 592.6 139.92 591.72 139.36C590.84 138.787 590.147 137.96 589.64 136.88C589.133 135.787 588.88 134.493 588.88 133C588.88 131.507 589.133 130.22 589.64 129.14C590.147 128.047 590.84 127.22 591.72 126.66C592.6 126.087 593.6 125.8 594.72 125.8C595.84 125.8 596.84 126.087 597.72 126.66C598.613 127.22 599.313 128.047 599.82 129.14C600.327 130.22 600.58 131.507 600.58 133C600.58 134.493 600.327 135.787 599.82 136.88C599.313 137.96 598.613 138.787 597.72 139.36C596.84 139.92 595.84 140.2 594.72 140.2ZM594.72 137.94C595.72 137.94 596.507 137.527 597.08 136.7C597.667 135.873 597.96 134.64 597.96 133C597.96 131.36 597.667 130.127 597.08 129.3C596.507 128.473 595.72 128.06 594.72 128.06C593.733 128.06 592.947 128.473 592.36 129.3C591.787 130.127 591.5 131.36 591.5 133C591.5 134.64 591.787 135.873 592.36 136.7C592.947 137.527 593.733 137.94 594.72 137.94Z" fill="white"/>
<path d="M675.52 27.66C676.32 27.9667 676.933 28.4067 677.36 28.98C677.787 29.5533 678 30.24 678 31.04C678 31.88 677.773 32.6133 677.32 33.24C676.867 33.8533 676.22 34.3267 675.38 34.66C674.54 34.9933 673.553 35.16 672.42 35.16C671.3 35.16 670.32 34.9933 669.48 34.66C668.653 34.3267 668.013 33.8533 667.56 33.24C667.107 32.6133 666.88 31.88 666.88 31.04C666.88 30.24 667.087 29.5533 667.5 28.98C667.927 28.4067 668.54 27.9667 669.34 27.66C668.7 27.3533 668.213 26.9467 667.88 26.44C667.547 25.9333 667.38 25.3333 667.38 24.64C667.38 23.8667 667.587 23.1933 668 22.62C668.427 22.0467 669.02 21.6067 669.78 21.3C670.54 20.9933 671.42 20.84 672.42 20.84C673.433 20.84 674.32 20.9933 675.08 21.3C675.853 21.6067 676.447 22.0467 676.86 22.62C677.287 23.1933 677.5 23.8667 677.5 24.64C677.5 25.32 677.327 25.92 676.98 26.44C676.647 26.9467 676.16 27.3533 675.52 27.66ZM672.42 22.46C671.473 22.46 670.727 22.6667 670.18 23.08C669.633 23.48 669.36 24.0267 669.36 24.72C669.36 25.4133 669.627 25.96 670.16 26.36C670.707 26.76 671.46 26.96 672.42 26.96C673.393 26.96 674.153 26.76 674.7 26.36C675.26 25.96 675.54 25.4133 675.54 24.72C675.54 24.0267 675.253 23.48 674.68 23.08C674.12 22.6667 673.367 22.46 672.42 22.46ZM672.42 33.54C673.527 33.54 674.4 33.3133 675.04 32.86C675.68 32.3933 676 31.7667 676 30.98C676 30.2067 675.68 29.6 675.04 29.16C674.4 28.7067 673.527 28.48 672.42 28.48C671.313 28.48 670.447 28.7067 669.82 29.16C669.193 29.6 668.88 30.2067 668.88 30.98C668.88 31.7667 669.193 32.3933 669.82 32.86C670.447 33.3133 671.313 33.54 672.42 33.54Z" fill="white"/>
<path d="M671.72 87.2C670.6 87.2 669.6 86.92 668.72 86.36C667.84 85.7867 667.147 84.96 666.64 83.88C666.133 82.7867 665.88 81.4933 665.88 80C665.88 78.5067 666.133 77.22 666.64 76.14C667.147 75.0467 667.84 74.22 668.72 73.66C669.6 73.0867 670.6 72.8 671.72 72.8C672.84 72.8 673.84 73.0867 674.72 73.66C675.613 74.22 676.313 75.0467 676.82 76.14C677.327 77.22 677.58 78.5067 677.58 80C677.58 81.4933 677.327 82.7867 676.82 83.88C676.313 84.96 675.613 85.7867 674.72 86.36C673.84 86.92 672.84 87.2 671.72 87.2ZM671.72 84.94C672.72 84.94 673.507 84.5267 674.08 83.7C674.667 82.8733 674.96 81.64 674.96 80C674.96 78.36 674.667 77.1267 674.08 76.3C673.507 75.4733 672.72 75.06 671.72 75.06C670.733 75.06 669.947 75.4733 669.36 76.3C668.787 77.1267 668.5 78.36 668.5 80C668.5 81.64 668.787 82.8733 669.36 83.7C669.947 84.5267 670.733 84.94 671.72 84.94Z" fill="white"/>
<path d="M671.68 140.16C670.573 140.16 669.587 139.88 668.72 139.32C667.867 138.747 667.193 137.92 666.7 136.84C666.207 135.76 665.96 134.48 665.96 133C665.96 131.52 666.207 130.24 666.7 129.16C667.193 128.08 667.867 127.26 668.72 126.7C669.587 126.127 670.573 125.84 671.68 125.84C672.773 125.84 673.747 126.127 674.6 126.7C675.467 127.26 676.147 128.08 676.64 129.16C677.133 130.24 677.38 131.52 677.38 133C677.38 134.48 677.133 135.76 676.64 136.84C676.147 137.92 675.467 138.747 674.6 139.32C673.747 139.88 672.773 140.16 671.68 140.16ZM671.68 138.38C672.8 138.38 673.693 137.92 674.36 137C675.04 136.08 675.38 134.747 675.38 133C675.38 131.253 675.04 129.92 674.36 129C673.693 128.08 672.8 127.62 671.68 127.62C670.547 127.62 669.64 128.08 668.96 129C668.293 129.92 667.96 131.253 667.96 133C667.96 134.747 668.293 136.08 668.96 137C669.64 137.92 670.547 138.38 671.68 138.38Z" fill="white"/>
<path d="M750.5 20.84C752.38 20.84 753.827 21.4467 754.84 22.66C755.867 23.8733 756.38 25.5933 756.38 27.82C756.38 29.38 756.1 30.7133 755.54 31.82C754.993 32.9133 754.22 33.7467 753.22 34.32C752.233 34.88 751.08 35.16 749.76 35.16C749.08 35.16 748.44 35.0933 747.84 34.96C747.24 34.8133 746.72 34.6067 746.28 34.34L747.04 32.78C747.72 33.22 748.62 33.44 749.74 33.44C751.193 33.44 752.327 32.9933 753.14 32.1C753.967 31.1933 754.38 29.88 754.38 28.16V27.66C753.98 28.26 753.427 28.72 752.72 29.04C752.013 29.3467 751.22 29.5 750.34 29.5C749.42 29.5 748.593 29.3267 747.86 28.98C747.14 28.6333 746.573 28.14 746.16 27.5C745.76 26.8467 745.56 26.1 745.56 25.26C745.56 24.38 745.773 23.6067 746.2 22.94C746.64 22.2733 747.233 21.76 747.98 21.4C748.727 21.0267 749.567 20.84 750.5 20.84ZM750.68 27.88C751.307 27.88 751.867 27.76 752.36 27.52C752.853 27.28 753.233 26.9533 753.5 26.54C753.78 26.1267 753.92 25.6667 753.92 25.16C753.92 24.6667 753.787 24.22 753.52 23.82C753.267 23.4067 752.887 23.08 752.38 22.84C751.887 22.5867 751.287 22.46 750.58 22.46C749.66 22.46 748.913 22.7067 748.34 23.2C747.78 23.6933 747.5 24.3533 747.5 25.18C747.5 26.0067 747.787 26.6667 748.36 27.16C748.933 27.64 749.707 27.88 750.68 27.88Z" fill="white"/>
<path d="M750.72 87.2C749.6 87.2 748.6 86.92 747.72 86.36C746.84 85.7867 746.147 84.96 745.64 83.88C745.133 82.7867 744.88 81.4933 744.88 80C744.88 78.5067 745.133 77.22 745.64 76.14C746.147 75.0467 746.84 74.22 747.72 73.66C748.6 73.0867 749.6 72.8 750.72 72.8C751.84 72.8 752.84 73.0867 753.72 73.66C754.613 74.22 755.313 75.0467 755.82 76.14C756.327 77.22 756.58 78.5067 756.58 80C756.58 81.4933 756.327 82.7867 755.82 83.88C755.313 84.96 754.613 85.7867 753.72 86.36C752.84 86.92 751.84 87.2 750.72 87.2ZM750.72 84.94C751.72 84.94 752.507 84.5267 753.08 83.7C753.667 82.8733 753.96 81.64 753.96 80C753.96 78.36 753.667 77.1267 753.08 76.3C752.507 75.4733 751.72 75.06 750.72 75.06C749.733 75.06 748.947 75.4733 748.36 76.3C747.787 77.1267 747.5 78.36 747.5 80C747.5 81.64 747.787 82.8733 748.36 83.7C748.947 84.5267 749.733 84.94 750.72 84.94Z" fill="white"/>
<path d="M752.98 133.5L756.79 137.34L754.72 139.53L750.85 135.63L746.98 139.53L744.97 137.34L748.75 133.5L744.97 129.66L746.98 127.47L750.85 131.37L754.72 127.47L756.79 129.66L752.98 133.5Z" fill="white"/>
<path d="M833.58 35L830.88 31.1H830.72H827.9V35H824.66V21H830.72C831.96 21 833.033 21.2067 833.94 21.62C834.86 22.0333 835.567 22.62 836.06 23.38C836.553 24.14 836.8 25.04 836.8 26.08C836.8 27.12 836.547 28.02 836.04 28.78C835.547 29.5267 834.84 30.1 833.92 30.5L837.06 35H833.58ZM833.52 26.08C833.52 25.2933 833.267 24.6933 832.76 24.28C832.253 23.8533 831.513 23.64 830.54 23.64H827.9V28.52H830.54C831.513 28.52 832.253 28.3067 832.76 27.88C833.267 27.4533 833.52 26.8533 833.52 26.08Z" fill="white"/>
<path d="M831.72 73V87H829.12V75.18H826.16V73H831.72Z" fill="white"/>
<path d="M831.24 131.36C832.16 131.36 832.987 131.54 833.72 131.9C834.453 132.247 835.027 132.747 835.44 133.4C835.853 134.053 836.06 134.807 836.06 135.66C836.06 136.567 835.833 137.367 835.38 138.06C834.927 138.74 834.313 139.267 833.54 139.64C832.767 140.013 831.9 140.2 830.94 140.2C829.02 140.2 827.527 139.6 826.46 138.4C825.407 137.2 824.88 135.48 824.88 133.24C824.88 131.667 825.167 130.327 825.74 129.22C826.313 128.1 827.113 127.253 828.14 126.68C829.18 126.093 830.38 125.8 831.74 125.8C832.46 125.8 833.133 125.88 833.76 126.04C834.4 126.187 834.953 126.407 835.42 126.7L834.46 128.66C833.767 128.207 832.88 127.98 831.8 127.98C830.453 127.98 829.4 128.393 828.64 129.22C827.88 130.047 827.5 131.24 827.5 132.8V132.82C827.913 132.34 828.44 131.98 829.08 131.74C829.72 131.487 830.44 131.36 831.24 131.36ZM830.8 138.16C831.613 138.16 832.273 137.947 832.78 137.52C833.287 137.08 833.54 136.5 833.54 135.78C833.54 135.047 833.287 134.467 832.78 134.04C832.273 133.613 831.593 133.4 830.74 133.4C829.9 133.4 829.213 133.627 828.68 134.08C828.16 134.533 827.9 135.107 827.9 135.8C827.9 136.48 828.153 137.047 828.66 137.5C829.18 137.94 829.893 138.16 830.8 138.16Z" fill="white"/>
<path d="M915.14 21V35H913.14V28.76H905.1V35H903.1V21H905.1V27.02H913.14V21H915.14Z" fill="white"/>
<path d="M909.84 78.78C911.133 78.94 912.12 79.38 912.8 80.1C913.48 80.82 913.82 81.72 913.82 82.8C913.82 83.6133 913.613 84.3533 913.2 85.02C912.787 85.6867 912.16 86.22 911.32 86.62C910.493 87.0067 909.48 87.2 908.28 87.2C907.28 87.2 906.313 87.06 905.38 86.78C904.46 86.4867 903.673 86.0867 903.02 85.58L904.14 83.56C904.647 83.9867 905.26 84.3267 905.98 84.58C906.713 84.82 907.467 84.94 908.24 84.94C909.16 84.94 909.88 84.7533 910.4 84.38C910.933 83.9933 911.2 83.4733 911.2 82.82C911.2 82.1667 910.947 81.66 910.44 81.3C909.947 80.9267 909.187 80.74 908.16 80.74H906.88V78.96L910.06 75.18H903.7V73H913.24V74.74L909.84 78.78Z" fill="white"/>
<path d="M915.36 136.82H912.88V140H910.36V136.82H902.68V135.02L909.58 126H912.36L905.86 134.62H910.44V131.8H912.88V134.62H915.36V136.82Z" fill="white"/>
<path d="M993.26 33.26V35H983.1V21H992.98V22.74H985.1V27.04H992.12V28.74H985.1V33.26H993.26Z" fill="white"/>
<path d="M994.36 83.82H991.88V87H989.36V83.82H981.68V82.02L988.58 73H991.36L984.86 81.62H989.44V78.8H991.88V81.62H994.36V83.82Z" fill="white"/>
<path d="M987.72 140.2C986.6 140.2 985.6 139.92 984.72 139.36C983.84 138.787 983.147 137.96 982.64 136.88C982.133 135.787 981.88 134.493 981.88 133C981.88 131.507 982.133 130.22 982.64 129.14C983.147 128.047 983.84 127.22 984.72 126.66C985.6 126.087 986.6 125.8 987.72 125.8C988.84 125.8 989.84 126.087 990.72 126.66C991.613 127.22 992.313 128.047 992.82 129.14C993.327 130.22 993.58 131.507 993.58 133C993.58 134.493 993.327 135.787 992.82 136.88C992.313 137.96 991.613 138.787 990.72 139.36C989.84 139.92 988.84 140.2 987.72 140.2ZM987.72 137.94C988.72 137.94 989.507 137.527 990.08 136.7C990.667 135.873 990.96 134.64 990.96 133C990.96 131.36 990.667 130.127 990.08 129.3C989.507 128.473 988.72 128.06 987.72 128.06C986.733 128.06 985.947 128.473 985.36 129.3C984.787 130.127 984.5 131.36 984.5 133C984.5 134.64 984.787 135.873 985.36 136.7C985.947 137.527 986.733 137.94 987.72 137.94Z" fill="white"/>
<path d="M12.92 143H15.26V136.32H21.56V143H23.88V128.28H21.56V134.3H15.26V128.28H12.92V143Z" fill="white"/>
<path d="M33.0643 143.28C36.8443 143.28 39.4643 140.34 39.4643 135.58C39.4643 130.84 36.8443 128.02 33.0643 128.02C29.2643 128.02 26.6443 130.84 26.6443 135.58C26.6443 140.34 29.2643 143.28 33.0643 143.28ZM33.0643 141.24C30.6043 141.24 29.0443 139.02 29.0443 135.58C29.0443 132.14 30.6043 130.04 33.0643 130.04C35.5043 130.04 37.0843 132.14 37.0843 135.58C37.0843 139.02 35.5043 141.24 33.0643 141.24Z" fill="white"/>
<path d="M42.2224 143H44.3224V135.74C44.3224 134.4 44.1424 132.52 44.0224 131.18H44.1024L45.2824 134.58L47.8424 141.6H49.2824L51.8424 134.58L53.0424 131.18H53.1224C53.0024 132.52 52.8224 134.4 52.8224 135.74V143H54.9624V128.28H52.2824L49.6224 135.74C49.3024 136.7 49.0224 137.7 48.6624 138.7H48.5824C48.2424 137.7 47.9424 136.7 47.5824 135.74L44.9024 128.28H42.2224V143Z" fill="white"/>
<path d="M58.5239 143H67.464V141.04H60.864V136.3H66.2439V134.32H60.864V130.24H67.2439V128.28H58.5239V143Z" fill="white"/>
<defs>
<linearGradient id="paint0_linear_473_206" x1="1021" y1="26.5005" x2="-3.75516e-06" y2="26.5004" gradientUnits="userSpaceOnUse">
<stop stop-color="#8B2525"/>
<stop offset="1" stop-color="#AF372E"/>
</linearGradient>
</defs>
</svg>
