<?xml version="1.0" encoding="UTF-8"?><svg id="a" xmlns="http://www.w3.org/2000/svg" viewBox="0 0 78 52"><defs><style>.b{fill:#812927;}.c{fill:#b5382f;}</style></defs><polygon class="c" points="74.5 49.7 71.8 52 76.5 52 78 52 78 46.8 74.5 49.7"/><polygon class="b" points="72 46.6 65.6 52 71.8 52 74.5 49.7 78 46.8 78 41.6 72 46.6"/><polygon class="c" points="69.4 43.6 59.4 52 65.6 52 72 46.6 78 41.6 78 36.4 69.4 43.6"/><polygon class="b" points="66.8 40.5 53.1 52 59.4 52 69.4 43.6 78 36.4 78 31.1 66.8 40.5"/><polygon class="c" points="64.3 37.4 46.9 52 53.1 52 66.8 40.5 78 31.1 78 25.9 64.3 37.4"/><polygon class="b" points="61.7 34.4 40.7 52 46.9 52 64.3 37.4 78 25.9 78 20.7 61.7 34.4"/><polygon class="c" points="59.1 31.3 34.5 52 40.7 52 61.7 34.4 78 20.7 78 15.5 59.1 31.3"/><polygon class="b" points="56.5 28.2 28.2 52 34.5 52 59.1 31.3 78 15.5 78 10.2 56.5 28.2"/><polygon class="c" points="54 25.2 22 52 28.2 52 56.5 28.2 78 10.2 78 5 54 25.2"/><polygon class="b" points="77.8 0 51.4 22.1 15.8 52 22 52 54 25.2 78 5 78 0 77.8 0"/><polygon class="c" points="71.5 0 48.8 19.1 9.6 52 15.8 52 51.4 22.1 77.8 0 71.5 0"/><polygon class="b" points="65.3 0 46.3 16 3.3 52 9.6 52 48.8 19.1 71.5 0 65.3 0"/><polygon class="c" points="59.1 0 43.7 12.9 0 49.6 0 52 3.3 52 46.3 16 65.3 0 59.1 0"/><polygon class="b" points="52.9 0 41.1 9.9 0 44.4 0 49.6 43.7 12.9 59.1 0 52.9 0"/><polygon class="c" points="46.6 0 38.6 6.8 0 39.1 0 44.4 41.1 9.9 52.9 0 46.6 0"/><polygon class="b" points="40.4 0 36 3.7 0 33.9 0 39.1 38.6 6.8 46.6 0 40.4 0"/><polygon class="c" points="34.2 0 33.4 .7 0 28.7 0 33.9 36 3.7 40.4 0 34.2 0"/><polygon class="b" points="32.8 0 28 0 0 23.5 0 28.7 33.4 .7 34.2 0 32.8 0"/><polygon class="c" points="21.8 0 0 18.3 0 23.5 28 0 21.8 0"/><polygon class="b" points="15.5 0 0 13 0 18.3 21.8 0 15.5 0"/><polygon class="c" points="9.3 0 0 7.8 0 13 15.5 0 9.3 0"/><polygon class="b" points="3.1 0 0 2.6 0 7.8 9.3 0 3.1 0"/><polygon class="c" points="0 0 0 2.6 3.1 0 0 0"/></svg>